<?xml version="1.0" encoding="UTF-8" standalone="no"?>
<!-- Created with Inkscape (http://www.inkscape.org/) -->

<svg
   width="210mm"
   height="297mm"
   viewBox="0 0 210 297"
   version="1.1"
   id="svg1"
   inkscape:version="1.4 (86a8ad7, 2024-10-11)"
   sodipodi:docname="logo.svg"
   xml:space="preserve"
   xmlns:inkscape="http://www.inkscape.org/namespaces/inkscape"
   xmlns:sodipodi="http://sodipodi.sourceforge.net/DTD/sodipodi-0.dtd"
   xmlns="http://www.w3.org/2000/svg"
   xmlns:svg="http://www.w3.org/2000/svg"><sodipodi:namedview
     id="namedview1"
     pagecolor="#505050"
     bordercolor="#ffffff"
     borderopacity="1"
     inkscape:showpageshadow="0"
     inkscape:pageopacity="0"
     inkscape:pagecheckerboard="1"
     inkscape:deskcolor="#505050"
     inkscape:document-units="mm"
     inkscape:zoom="0.75087439"
     inkscape:cx="-133.17807"
     inkscape:cy="284.33517"
     inkscape:window-width="1920"
     inkscape:window-height="1051"
     inkscape:window-x="-9"
     inkscape:window-y="-9"
     inkscape:window-maximized="1"
     inkscape:current-layer="layer1"
     showgrid="false" /><defs
     id="defs1" /><g
     inkscape:label="Layer 1"
     inkscape:groupmode="layer"
     id="layer1"><g
       id="g11" /><g
       id="g40"
       transform="matrix(0.83653135,0,0,0.83653135,5.1864193,14.823342)"><g
         id="g37"
         transform="translate(1.2458054,0.24916107)"><path
           id="path8"
           style="fill:#0799d4;fill-opacity:1;stroke-width:1.73233;stroke-linecap:round;stroke-linejoin:round"
           d="m 165.39848,117.94006 c -1.91103,0.29836 -2.92972,2.67385 -2.10173,4.35117 1.45958,5.99006 2.61756,12.032 2.13708,18.1985 -0.24335,1.84798 -0.52911,4.01894 -2.16274,5.18466 -1.64934,0.9027 -3.69509,-0.0344 -4.7144,-1.4609 -2.00457,-2.49286 -2.92252,-5.64521 -3.75656,-8.68087 -1.16216,-4.49098 -1.5873,-9.18834 -2.01102,-13.8406 -0.41185,-1.73074 -2.4581,-2.35077 -4.03538,-2.06294 -3.74473,0.33536 -7.52808,0.33433 -11.27126,0.82661 -1.67457,0.62319 -2.07396,2.66493 -1.83008,4.24414 0.30702,9.00749 1.93064,18.19188 6.33608,26.15403 3.03294,5.36103 7.94505,9.93841 14.02261,11.47962 5.40763,1.49135 11.53002,1.18283 16.40844,-1.75705 4.14724,-2.56142 6.87468,-6.92668 8.23246,-11.5322 2.26011,-7.26955 2.11465,-15.01806 1.40861,-22.51823 -0.2745,-2.34623 -0.52441,-4.73222 -1.20464,-6.9946 -0.85042,-1.53478 -2.81213,-1.57526 -4.35238,-1.50076 -3.70161,-0.0412 -7.40313,-0.10853 -11.10509,-0.0906 z" /><path
           style="fill:#34bdf4;fill-opacity:1;stroke:none;stroke-width:1.73233;stroke-linecap:round;stroke-linejoin:round"
           d="M 139.44386,121.63202 151.41,120.91117 c 0,0 0.9851,27.25747 12.03823,26.45526 11.05314,-0.80221 3.31591,-28.11322 3.31591,-28.11322 l 12.94595,0.14693 c 0,0 8.34547,40.21206 -16.40603,39.86034 -24.7515,-0.35172 -23.8602,-37.62846 -23.8602,-37.62846 z"
           id="path4"
           sodipodi:nodetypes="cczcczc" /></g><g
         id="g39"
         transform="translate(-2.0787871,2.5343601)"><path
           id="path9"
           style="fill:#0799d4;fill-opacity:1;stroke-width:2.117;stroke-linecap:round;stroke-linejoin:round"
           d="m 76.863323,118.37756 c -1.732633,0.17021 -2.511107,1.91442 -3.379464,3.17693 -3.180992,4.52543 -6.316932,9.08232 -9.472098,13.6258 -4.183782,-4.65432 -8.279255,-9.40079 -12.552735,-13.9746 -1.790319,-1.19854 -4.379805,0.33433 -4.560547,2.38086 -4.344117,12.17566 -8.754905,24.33053 -13.017578,36.53319 -0.287008,2.00066 1.856664,3.56927 3.71875,3.30469 5.613616,0.42364 11.222421,0.96925 16.84375,1.25391 1.715133,-0.27034 2.457515,-2.08238 2.78125,-3.58399 0.907749,-2.83883 1.808726,-5.7638 2.720704,-8.54883 0.449027,1.23918 1.729543,2.15368 3.069574,1.89141 1.302305,-0.16143 2.226827,-1.20418 2.853272,-2.26848 0.58952,-0.75061 1.17904,-1.50122 1.76856,-2.25183 1.570598,3.96394 3.048789,7.97033 4.730468,11.88672 1.140349,1.56237 3.490213,1.28777 4.870081,0.21384 5.089712,-2.68129 10.293248,-5.16225 15.28031,-8.0283 1.276325,-1.23815 0.802108,-3.23019 0.0098,-4.5957 -4.34699,-9.99592 -8.634439,-20.01719 -13.063212,-29.97514 -0.578175,-0.81546 -1.636818,-1.13975 -2.600851,-1.04049 z" /><path
           style="fill:#34bdf4;fill-opacity:1;stroke-width:2.117;stroke-linecap:round;stroke-linejoin:round"
           d="m 50.999764,121.94035 -13.389946,37.43899 17.70644,1.40947 5.461688,-17.26598 2.995121,7.22352 5.814054,-7.3997 6.166419,15.76842 16.20888,-8.36872 -13.56613,-31.27257 -12.949482,18.67545 z"
           id="path1" /></g><g
         id="g38"><path
           id="path10"
           style="fill:#0799d4;fill-opacity:1;stroke-width:2.117;stroke-linecap:round;stroke-linejoin:round"
           d="m 113.76762,113.04358 c -9.9376,2.03943 -19.857129,4.18472 -29.775391,6.31055 -1.471204,0.24412 -2.318042,1.77176 -2.201404,3.1761 0.178089,1.6125 0.611867,3.19131 0.832767,4.80229 0.550326,3.09131 0.994291,6.21554 1.7827,9.25403 0.944702,1.67031 3.287857,1.69396 4.777261,0.79115 1.842476,-0.68885 3.684951,-1.37769 5.527426,-2.06654 -0.707682,4.09245 -1.415364,8.18489 -2.123046,12.27734 -3.668846,0.32905 -7.365043,0.44731 -11.009766,0.98438 -1.643895,0.65688 -1.999849,2.68768 -1.716797,4.24804 0.206391,3.12846 0.197368,6.27939 0.607422,9.38867 0.600194,1.64342 2.5619,2.0427 4.115234,1.9375 9.284467,0.37765 18.568954,0.84396 27.855474,1.11523 1.7455,-0.3172 2.46269,-2.20981 2.65039,-3.77148 0.93739,-4.36525 2.09764,-8.69084 2.88086,-13.08399 -0.16372,-2.02982 -2.59591,-3.11652 -4.38086,-2.4668 -2.2513,0.27409 -4.50261,0.54818 -6.75391,0.82227 0.55143,-4.86588 1.10287,-9.73177 1.6543,-14.59765 3.10713,-0.55353 6.26988,-0.90006 9.34375,-1.66601 1.64252,-0.84158 1.75537,-3.01179 1.20083,-4.56285 -0.82668,-3.83072 -1.40639,-7.72715 -2.46646,-11.49965 -0.5685,-0.95427 -1.70833,-1.47204 -2.80078,-1.39258 z" /><path
           style="fill:#34bdf4;fill-opacity:1;stroke-width:2.117;stroke-linecap:round;stroke-linejoin:round"
           d="m 85.53172,120.66302 2.37849,13.50307 11.36382,-4.25344 -3.25938,18.85163 -12.42094,0.96901 0.52854,10.39483 29.15838,1.23328 3.25938,-14.27086 L 105,148.5 l 2.26015,-19.91865 10.68933,-1.75191 -2.52442,-12.52156 z"
           id="path2"
           sodipodi:nodetypes="ccccccccccccc" /></g><g
         id="g36"
         transform="translate(0.74748322,0.24916111)"><path
           id="path11"
           style="fill:#0799d4;fill-opacity:1;stroke-width:2.117;stroke-linecap:round;stroke-linejoin:round"
           d="m 128.97661,122.73889 c -4.36693,0.94016 -8.73932,1.87385 -13.07813,2.93555 -1.6139,0.65966 -1.90233,2.56894 -2.08361,4.0946 -2.4511,14.09256 -4.95345,28.17895 -7.32068,42.28431 0.0284,1.92648 2.11465,3.03403 3.8494,2.91719 5.72672,0.60066 11.44154,1.35552 17.17803,1.83286 1.98273,-0.28292 2.88644,-2.70738 2.23233,-4.44146 -0.2539,-1.74089 -0.50781,-3.48177 -0.76172,-5.22266 1.82962,2.40459 3.57962,4.88253 5.55664,7.16602 1.43323,1.02843 3.26398,0.22228 4.53711,-0.67383 3.65094,-2.14159 7.40837,-4.1153 10.97461,-6.39258 1.3836,-1.48502 0.5695,-3.96785 -1.06545,-4.904 -4.48144,-4.16351 -8.96287,-8.32702 -13.44431,-12.49053 5.49198,-2.77142 11.0328,-5.45495 16.48046,-8.30859 1.54289,-1.29014 1.03575,-3.87899 -0.51757,-4.93945 -3.78378,-4.02137 -7.47135,-8.14136 -11.34375,-12.07422 -1.5989,-1.00586 -3.66144,0.046 -4.55078,1.51953 -1.51237,1.71093 -3.02474,3.42187 -4.53711,5.13281 0.36355,-1.99139 0.88617,-3.97571 1.06444,-5.98744 -0.20435,-1.48507 -1.71848,-2.53354 -3.16991,-2.44811 z" /><path
           style="fill:#34bdf4;fill-opacity:1;stroke-width:2.117;stroke-linecap:round;stroke-linejoin:round"
           d="m 117.94948,126.82944 -7.66398,44.04587 18.23499,2.02611 -2.46657,-16.91362 11.27574,14.9756 12.15666,-6.95925 -17.35407,-16.12079 19.55636,-9.77818 -11.89238,-12.77331 -12.06857,13.65423 2.99512,-14.9756 z"
           id="path3" /></g></g><g
       style="shape-rendering:crispEdges"
       id="g42"
       transform="matrix(1.3172613,0,0,1.3172613,110.80153,146.53457)"><rect
         x="22"
         y="8"
         width="4"
         height="2"
         fill="#0799d4"
         id="rect1" /><rect
         x="26"
         y="8"
         width="2"
         height="4"
         fill="#06071c"
         id="rect2" /><rect
         x="36"
         y="8"
         width="2"
         height="4"
         fill="#06071c"
         id="rect3" /><rect
         x="38"
         y="8"
         width="2"
         height="2"
         fill="#34bdf4"
         id="rect4" /><rect
         x="40"
         y="8"
         width="2"
         height="2"
         fill="#0799d4"
         id="rect5" /><rect
         x="20"
         y="10"
         width="4"
         height="2"
         fill="#34bdf4"
         id="rect6" /><rect
         x="24"
         y="10"
         width="2"
         height="2"
         fill="#ef1e61"
         id="rect7" /><rect
         x="28"
         y="10"
         width="8"
         height="6"
         fill="#34bdf4"
         id="rect8" /><rect
         x="38"
         y="10"
         width="2"
         height="2"
         fill="#ef1e61"
         id="rect9" /><rect
         x="40"
         y="10"
         width="2"
         height="2"
         fill="#06071c"
         id="rect10" /><rect
         x="42"
         y="10"
         width="2"
         height="2"
         fill="#0799d4"
         id="rect11" /><rect
         x="20"
         y="12"
         width="2"
         height="2"
         fill="#34bdf4"
         id="rect12" /><rect
         x="22"
         y="12"
         width="4"
         height="2"
         fill="#06071c"
         id="rect13" /><rect
         x="26"
         y="12"
         width="2"
         height="4"
         fill="#34bdf4"
         id="rect14" /><rect
         x="36"
         y="12"
         width="2"
         height="4"
         fill="#34bdf4"
         id="rect15" /><rect
         x="38"
         y="12"
         width="2"
         height="2"
         fill="#06071c"
         id="rect16" /><rect
         x="40"
         y="12"
         width="4"
         height="2"
         fill="#34bdf4"
         id="rect17" /><rect
         x="18"
         y="14"
         width="2"
         height="10"
         fill="#34bdf4"
         id="rect18" /><rect
         x="20"
         y="14"
         width="4"
         height="2"
         fill="#06071c"
         id="rect19" /><rect
         x="24"
         y="14"
         width="2"
         height="8"
         fill="#34bdf4"
         id="rect20" /><rect
         x="38"
         y="14"
         width="4"
         height="4"
         fill="#34bdf4"
         id="rect21" /><rect
         x="42"
         y="14"
         width="2"
         height="2"
         fill="#0799d4"
         id="rect22" /><rect
         x="44"
         y="14"
         width="2"
         height="10"
         fill="#34bdf4"
         id="rect23" /><rect
         x="20"
         y="16"
         width="2"
         height="6"
         fill="#34bdf4"
         id="rect24" /><rect
         x="22"
         y="16"
         width="2"
         height="4"
         fill="#0799d4"
         id="rect25" /><rect
         x="26"
         y="16"
         width="6"
         height="2"
         fill="#0799d4"
         id="rect26" /><rect
         x="32"
         y="16"
         width="4"
         height="2"
         fill="#34bdf4"
         id="rect27" /><rect
         x="36"
         y="16"
         width="2"
         height="2"
         fill="#0799d4"
         id="rect28" /><rect
         x="42"
         y="16"
         width="2"
         height="4"
         fill="#34bdf4"
         id="rect29" /><rect
         x="26"
         y="18"
         width="6"
         height="2"
         fill="#e3a987"
         id="rect30" /><rect
         x="32"
         y="18"
         width="2"
         height="2"
         fill="#0799d4"
         id="rect31" /><rect
         x="34"
         y="18"
         width="2"
         height="2"
         fill="#34bdf4"
         id="rect32" /><rect
         x="36"
         y="18"
         width="2"
         height="2"
         fill="#e3a987"
         id="rect33" /><rect
         x="38"
         y="18"
         width="2"
         height="8"
         fill="#0799d4"
         id="rect34" /><rect
         x="40"
         y="18"
         width="2"
         height="2"
         fill="#34bdf4"
         id="rect35" /><rect
         x="46"
         y="18"
         width="2"
         height="8"
         fill="#34bdf4"
         id="rect36" /><rect
         x="16"
         y="20"
         width="2"
         height="12"
         fill="#34bdf4"
         id="rect37" /><rect
         x="22"
         y="20"
         width="2"
         height="4"
         fill="#06071c"
         id="rect38" /><rect
         x="26"
         y="20"
         width="2"
         height="6"
         fill="#0799d4"
         id="rect39" /><rect
         x="28"
         y="20"
         width="2"
         height="2"
         fill="#06071c"
         id="rect40" /><rect
         x="30"
         y="20"
         width="2"
         height="6"
         fill="#f6d4b0"
         id="rect41" /><rect
         x="32"
         y="20"
         width="2"
         height="2"
         fill="#e3a987"
         id="rect42" /><rect
         x="34"
         y="20"
         width="2"
         height="2"
         fill="#0799d4"
         id="rect43" /><rect
         x="36"
         y="20"
         width="2"
         height="2"
         fill="#06071c"
         id="rect44" /><rect
         x="40"
         y="20"
         width="2"
         height="4"
         fill="#0799d4"
         id="rect45" /><rect
         x="42"
         y="20"
         width="2"
         height="4"
         fill="#06071c"
         id="rect46" /><rect
         x="20"
         y="22"
         width="2"
         height="2"
         fill="#0799d4"
         id="rect47" /><rect
         x="24"
         y="22"
         width="2"
         height="2"
         fill="#0799d4"
         id="rect48" /><rect
         x="28"
         y="22"
         width="2"
         height="2"
         fill="#004286"
         id="rect49" /><rect
         x="32"
         y="22"
         width="4"
         height="4"
         fill="#f6d4b0"
         id="rect50" /><rect
         x="36"
         y="22"
         width="2"
         height="2"
         fill="#004286"
         id="rect51" /><rect
         x="14"
         y="24"
         width="2"
         height="2"
         fill="#0799d4"
         id="rect52" /><rect
         x="18"
         y="24"
         width="2"
         height="6"
         fill="#0799d4"
         id="rect53" /><rect
         x="24"
         y="24"
         width="2"
         height="2"
         fill="#06071c"
         id="rect54" /><rect
         x="28"
         y="24"
         width="2"
         height="2"
         fill="#e3a987"
         id="rect55" /><rect
         x="36"
         y="24"
         width="2"
         height="2"
         fill="#e3a987"
         id="rect56" /><rect
         x="40"
         y="24"
         width="2"
         height="2"
         fill="#06071c"
         id="rect57" /><rect
         x="48"
         y="24"
         width="2"
         height="8"
         fill="#34bdf4"
         id="rect58" /><rect
         x="14"
         y="26"
         width="2"
         height="4"
         fill="#34bdf4"
         id="rect59" /><rect
         x="46"
         y="26"
         width="2"
         height="4"
         fill="#0799d4"
         id="rect60" /><rect
         x="18"
         y="30"
         width="4"
         height="2"
         fill="#34bdf4"
         id="rect61" /><rect
         x="44"
         y="30"
         width="2"
         height="2"
         fill="#0799d4"
         id="rect63" /><rect
         x="46"
         y="30"
         width="2"
         height="4"
         fill="#34bdf4"
         id="rect64" /><rect
         x="42"
         y="32"
         width="4"
         height="2"
         fill="#34bdf4"
         id="rect68" /></g><path
       d="M 27.484907,188.01431 V 184.988 h 3.026309 v -21.18415 h -3.026309 v -3.02631 h 9.078925 v 12.10523 h 3.026309 v 3.02631 h -3.026309 v 12.10523 z m 12.105234,-15.13154 v -3.02631 h 6.052616 v 3.02631 h 3.026309 v 15.13154 h -6.052617 v -15.13154 z m 12.10521,12.10523 v -12.10523 h 3.026308 v -3.02631 h 15.131542 v 3.02631 h 3.026308 V 184.988 h -3.026308 v 3.02631 H 54.721659 V 184.988 Z m 6.052616,0 h 9.078926 v -12.10523 h -9.078926 z m 18.157827,3.02631 v -18.15785 h 9.078925 v 3.02631 h 3.026309 v -3.02631 h 6.052616 v 3.02631 h 3.026309 v 15.13154 h -6.052617 v -12.10523 h -3.026308 v 9.07892 h -3.026309 v -9.07892 h -3.026308 v 12.10523 z M 100.11624,184.988 v -12.10523 h 3.02631 v -3.02631 h 15.13154 v 3.02631 h 3.02631 v 6.05262 h -15.13154 v 6.05261 h 9.07892 v -3.0263 h 6.05262 v 3.0263 h -3.02631 v 3.02631 H 103.14255 V 184.988 Z m 6.05262,-12.10523 v 3.02631 h 9.07892 v -3.02631 z"
       id="text42"
       style="font-size:36.3157px;font-family:'BigBlueTermPlus Nerd Font Mono';-inkscape-font-specification:'BigBlueTermPlus Nerd Font Mono, Normal';fill:#34bdf4;stroke-width:0.805167;stroke-linecap:round;stroke-linejoin:round"
       aria-label="home" /></g></svg>
