<?xml version="1.0" encoding="UTF-8"?>
<svg xmlns="http://www.w3.org/2000/svg" version="1.1" xmlns:inkscape="http://www.inkscape.org/namespaces/inkscape" xmlns:sodipodi="http://sodipodi.sourceforge.net/DTD/sodipodi-0.dtd" xmlns:svg="http://www.w3.org/2000/svg" viewBox="0 0 2880 1620">
  <!-- Generator: Adobe Illustrator 29.8.2, SVG Export Plug-In . SVG Version: 2.1.1 Build 3)  -->
  <defs>
    <style>
      .st0 {
        fill: #004286;
      }

      .st1 {
        fill: #0799d4;
      }

      .st2 {
        fill: #e3a987;
      }

      .st3 {
        display: none;
      }

      .st4 {
        fill: #ef1e61;
      }

      .st5 {
        fill: #f6d4b0;
      }

      .st6 {
        fill: #34bdf4;
      }

      .st7 {
        fill: #06071c;
      }
    </style>
  </defs>
  <g id="svg1" sodipodi:docname="splash.svg">
    <g id="g2">
      <g id="g1">
        <g id="g40">
          <path id="path8" class="st1" d="M1858.5,452.1c-15.2,2.4-23.3,21.2-16.7,34.5,11.6,47.6,20.8,95.5,17,144.5-1.9,14.7-4.2,31.9-17.2,41.2-13.1,7.2-29.3-.3-37.4-11.6-15.9-19.8-23.2-44.8-29.8-68.9-9.2-35.7-12.6-72.9-16-109.9-3.3-13.7-19.5-18.7-32-16.4-29.7,2.7-59.8,2.7-89.5,6.6-13.3,4.9-16.5,21.2-14.5,33.7,2.4,71.5,15.3,144.4,50.3,207.6,24.1,42.6,63.1,78.9,111.3,91.1,42.9,11.8,91.5,9.4,130.3-13.9,32.9-20.3,54.6-55,65.4-91.5,17.9-57.7,16.8-119.2,11.2-178.8-2.2-18.6-4.2-37.6-9.6-55.5-6.8-12.2-22.3-12.5-34.5-11.9-29.4-.3-58.8-.9-88.2-.7h0Z"/>
          <path id="path4" class="st6" d="M1652.5,481.4l95-5.7s7.8,216.4,95.6,210c87.7-6.4,26.3-223.2,26.3-223.2l102.8,1.2s66.2,319.2-130.2,316.4c-196.5-2.8-189.4-298.7-189.4-298.7h0Z"/>
          <path id="path9" class="st1" d="M1129.3,473.7c-13.8,1.4-19.9,15.2-26.8,25.2-25.3,35.9-50.1,72.1-75.2,108.2-33.2-36.9-65.7-74.6-99.6-110.9-14.2-9.5-34.8,2.7-36.2,18.9-34.5,96.7-69.5,193.1-103.3,290-2.3,15.9,14.7,28.3,29.5,26.2,44.6,3.4,89.1,7.7,133.7,10,13.6-2.1,19.5-16.5,22.1-28.5,7.2-22.5,14.4-45.8,21.6-67.9,3.6,9.8,13.7,17.1,24.4,15,10.3-1.3,17.7-9.6,22.6-18,4.7-6,9.4-11.9,14-17.9,12.5,31.5,24.2,63.3,37.6,94.4,9.1,12.4,27.7,10.2,38.7,1.7,40.4-21.3,81.7-41,121.3-63.7,10.1-9.8,6.4-25.6,0-36.5-34.5-79.3-68.5-158.9-103.7-237.9-4.6-6.5-13-9-20.6-8.3h0Z"/>
          <path id="path1" class="st6" d="M924,502l-106.3,297.2,140.6,11.2,43.4-137.1,23.8,57.3,46.2-58.7,49,125.2,128.7-66.4-107.7-248.2-102.8,148.2-114.7-128.7Z"/>
          <path id="path10" class="st1" d="M1438.8,411.2c-78.9,16.2-157.6,33.2-236.4,50.1-11.7,1.9-18.4,14.1-17.5,25.2,1.4,12.8,4.9,25.3,6.6,38.1,4.4,24.5,7.9,49.3,14.2,73.5,7.5,13.3,26.1,13.4,37.9,6.3,14.6-5.5,29.3-10.9,43.9-16.4-5.6,32.5-11.2,65-16.9,97.5-29.1,2.6-58.5,3.6-87.4,7.8-13,5.2-15.9,21.3-13.6,33.7,1.6,24.8,1.6,49.8,4.8,74.5,4.8,13,20.3,16.2,32.7,15.4,73.7,3,147.4,6.7,221.1,8.9,13.9-2.5,19.5-17.5,21-29.9,7.4-34.7,16.7-69,22.9-103.9-1.3-16.1-20.6-24.7-34.8-19.6-17.9,2.2-35.7,4.4-53.6,6.5,4.4-38.6,8.8-77.3,13.1-115.9,24.7-4.4,49.8-7.1,74.2-13.2,13-6.7,13.9-23.9,9.5-36.2-6.6-30.4-11.2-61.3-19.6-91.3-4.5-7.6-13.6-11.7-22.2-11.1Z"/>
          <path id="path2" class="st6" d="M1214.6,471.7l18.9,107.2,90.2-33.8-25.9,149.6-98.6,7.7,4.2,82.5,231.5,9.8,25.9-113.3-91.6,11.2,17.9-158.1,84.9-13.9-20-99.4-237.3,50.4Z"/>
          <path id="path11" class="st1" d="M1565.4,490.2c-34.7,7.5-69.4,14.9-103.8,23.3-12.8,5.2-15.1,20.4-16.5,32.5-19.5,111.9-39.3,223.7-58.1,335.7.2,15.3,16.8,24.1,30.6,23.2,45.5,4.8,90.8,10.8,136.4,14.5,15.7-2.2,22.9-21.5,17.7-35.3-2-13.8-4-27.6-6-41.5,14.5,19.1,28.4,38.8,44.1,56.9,11.4,8.2,25.9,1.8,36-5.3,29-17,58.8-32.7,87.1-50.7,11-11.8,4.5-31.5-8.5-38.9-35.6-33.1-71.1-66.1-106.7-99.2,43.6-22,87.6-43.3,130.8-66,12.2-10.2,8.2-30.8-4.1-39.2-30-31.9-59.3-64.6-90-95.8-12.7-8-29.1.4-36.1,12.1-12,13.6-24,27.2-36,40.7,2.9-15.8,7-31.6,8.4-47.5-1.6-11.8-13.6-20.1-25.2-19.4h0Z"/>
          <path id="path3" class="st6" d="M1477.9,522.7l-60.8,349.6,144.8,16.1-19.6-134.3,89.5,118.9,96.5-55.2-137.8-128,155.2-77.6-94.4-101.4-95.8,108.4,23.8-118.9-101.4,22.4Z"/>
        </g>
        <g id="g42">
          <rect id="rect1" class="st1" x="1812.9" y="863.7" width="50" height="25"/>
          <rect id="rect2" class="st7" x="1862.9" y="863.7" width="25" height="50"/>
          <rect id="rect3" class="st7" x="1987.9" y="863.7" width="25" height="50"/>
          <rect id="rect4" class="st6" x="2012.9" y="863.7" width="25" height="25"/>
          <rect id="rect5" class="st1" x="2037.9" y="863.7" width="25" height="25"/>
          <rect id="rect7" class="st4" x="1837.9" y="888.7" width="25" height="25"/>
          <rect id="rect9" class="st4" x="2012.9" y="888.7" width="25" height="25"/>
          <rect id="rect10" class="st7" x="2037.9" y="888.7" width="25" height="25"/>
          <rect id="rect11" class="st1" x="2062.9" y="888.7" width="25" height="25"/>
          <polygon class="st6" points="1787.9 888.7 1787.9 913.7 1787.9 938.7 1812.9 938.7 1812.9 913.7 1837.9 913.7 1837.9 888.7 1787.9 888.7"/>
          <rect id="rect16" class="st7" x="2012.9" y="913.7" width="25" height="25"/>
          <polygon class="st7" points="1812.9 913.7 1812.9 938.7 1787.9 938.7 1787.9 963.7 1837.9 963.7 1837.9 938.7 1862.9 938.7 1862.9 913.7 1812.9 913.7"/>
          <rect id="rect22" class="st1" x="2062.9" y="938.7" width="25" height="25"/>
          <rect id="rect25" class="st1" x="1812.9" y="963.7" width="25" height="50"/>
          <rect id="rect26" class="st1" x="1862.9" y="963.7" width="75" height="25"/>
          <rect id="rect28" class="st1" x="1987.9" y="963.7" width="25" height="25"/>
          <rect id="rect30" class="st2" x="1862.9" y="988.7" width="75" height="25"/>
          <rect id="rect31" class="st1" x="1937.9" y="988.7" width="25" height="25"/>
          <rect id="rect33" class="st2" x="1987.9" y="988.7" width="25" height="25"/>
          <rect id="rect38" class="st7" x="1812.9" y="1013.7" width="25" height="50"/>
          <rect id="rect40" class="st7" x="1887.9" y="1013.7" width="25" height="25"/>
          <rect id="rect42" class="st2" x="1937.9" y="1013.7" width="25" height="25"/>
          <rect id="rect43" class="st1" x="1962.9" y="1013.7" width="25" height="25"/>
          <rect id="rect44" class="st7" x="1987.9" y="1013.7" width="25" height="25"/>
          <polygon class="st1" points="2037.9 1013.7 2037.9 988.7 2012.9 988.7 2012.9 1088.7 2037.9 1088.7 2037.9 1063.7 2062.9 1063.7 2062.9 1013.7 2037.9 1013.7"/>
          <rect id="rect46" class="st7" x="2062.9" y="1013.7" width="25" height="50"/>
          <rect id="rect47" class="st1" x="1787.9" y="1038.7" width="25" height="25"/>
          <polygon class="st1" points="1862.9 1013.7 1862.9 1038.7 1837.9 1038.7 1837.9 1063.7 1862.9 1063.7 1862.9 1088.7 1887.9 1088.7 1887.9 1013.7 1862.9 1013.7"/>
          <rect id="rect49" class="st0" x="1887.9" y="1038.7" width="25" height="25"/>
          <polygon class="st5" points="1937.9 1038.7 1937.9 1013.7 1912.9 1013.7 1912.9 1088.7 1937.9 1088.7 1987.9 1088.7 1987.9 1038.7 1937.9 1038.7"/>
          <rect id="rect51" class="st0" x="1987.9" y="1038.7" width="25" height="25"/>
          <rect id="rect52" class="st1" x="1712.9" y="1063.7" width="25" height="25"/>
          <rect id="rect53" class="st1" x="1762.9" y="1063.7" width="25" height="75"/>
          <rect id="rect54" class="st7" x="1837.9" y="1063.7" width="25" height="25"/>
          <rect id="rect55" class="st2" x="1887.9" y="1063.7" width="25" height="25"/>
          <rect id="rect56" class="st2" x="1987.9" y="1063.7" width="25" height="25"/>
          <rect id="rect57" class="st7" x="2037.9" y="1063.7" width="25" height="25"/>
          <rect id="rect60" class="st1" x="2112.9" y="1088.7" width="25" height="50"/>
          <polygon class="st6" points="1787.9 1063.7 1787.9 1038.7 1812.9 1038.7 1812.9 963.7 1787.9 963.7 1787.9 938.7 1762.9 938.7 1762.9 1013.7 1737.9 1013.7 1737.9 1088.7 1712.9 1088.7 1712.9 1138.7 1737.9 1138.7 1737.9 1163.7 1762.9 1163.7 1812.9 1163.7 1812.9 1138.7 1762.9 1138.7 1762.9 1063.7 1787.9 1063.7"/>
          <rect id="rect63" class="st1" x="2087.9" y="1138.7" width="25" height="25"/>
          <polygon class="st6" points="2137.9 1063.7 2137.9 988.7 2112.9 988.7 2112.9 938.7 2087.9 938.7 2087.9 963.7 2062.9 963.7 2062.9 938.7 2087.9 938.7 2087.9 913.7 2037.9 913.7 2037.9 938.7 2012.9 938.7 2012.9 913.7 1987.9 913.7 1987.9 888.7 1887.9 888.7 1887.9 913.7 1862.9 913.7 1862.9 938.7 1837.9 938.7 1837.9 1038.7 1862.9 1038.7 1862.9 963.7 1887.9 963.7 1937.9 963.7 1937.9 988.7 1962.9 988.7 1962.9 1013.7 1987.9 1013.7 1987.9 988.7 1987.9 963.7 2012.9 963.7 2012.9 988.7 2037.9 988.7 2037.9 1013.7 2062.9 1013.7 2087.9 1013.7 2087.9 1063.7 2112.9 1063.7 2112.9 1088.7 2137.9 1088.7 2137.9 1138.7 2112.9 1138.7 2112.9 1163.7 2062.9 1163.7 2062.9 1188.7 2112.9 1188.7 2137.9 1188.7 2137.9 1163.7 2162.9 1163.7 2162.9 1063.7 2137.9 1063.7"/>
        </g>
        <path id="text42" class="st6" d="M747.3,1157.4v-28.7h28.7v-201h-28.7v-28.7h86.2v114.9h28.7v28.7h-28.7v114.9h-86.2ZM862.1,1013.8v-28.7h57.4v28.7h28.7v143.6h-57.4v-143.6h-28.7ZM977,1128.6v-114.9h28.7v-28.7h143.6v28.7h28.7v114.9h-28.7v28.7h-143.6v-28.7h-28.7ZM1034.4,1128.6h86.2v-114.9h-86.2v114.9ZM1206.7,1157.4v-172.3h86.2v28.7h28.7v-28.7h57.4v28.7h28.7v143.6h-57.4v-114.9h-28.7v86.2h-28.7v-86.2h-28.7v114.9h-57.4ZM1436.5,1128.6v-114.9h28.7v-28.7h143.6v28.7h28.7v57.4h-143.6v57.4h86.2v-28.7h57.4v28.7h-28.7v28.7h-143.6v-28.7h-28.7ZM1493.9,1013.8v28.7h86.2v-28.7h-86.2Z"/>
        <g id="g130" class="st3">
          <rect id="rect65" class="st1" x="1812.9" y="863.7" width="50" height="25"/>
          <rect id="rect66" class="st7" x="1862.9" y="863.7" width="25" height="50"/>
          <rect id="rect67" class="st7" x="1987.9" y="863.7" width="25" height="50"/>
          <rect id="rect69" class="st6" x="2012.9" y="863.7" width="25" height="25"/>
          <rect id="rect70" class="st1" x="2037.9" y="863.7" width="25" height="25"/>
          <rect id="rect71" class="st6" x="1787.9" y="888.7" width="50" height="25"/>
          <rect id="rect73" class="st4" x="1837.9" y="888.7" width="25" height="25"/>
          <rect id="rect74" class="st6" x="1887.9" y="888.7" width="100" height="75"/>
          <rect id="rect75" class="st4" x="2012.9" y="888.7" width="25" height="25"/>
          <rect id="rect76" class="st7" x="2037.9" y="888.7" width="25" height="25"/>
          <rect id="rect77" class="st1" x="2062.9" y="888.7" width="25" height="25"/>
          <rect id="rect78" class="st6" x="1787.9" y="913.7" width="25" height="25"/>
          <rect id="rect79" class="st7" x="1812.9" y="913.7" width="50" height="25"/>
          <rect id="rect80" class="st6" x="1862.9" y="913.7" width="25" height="50"/>
          <rect id="rect81" class="st6" x="1987.9" y="913.7" width="25" height="50"/>
          <rect id="rect82" class="st7" x="2012.9" y="913.7" width="25" height="25"/>
          <rect id="rect83" class="st6" x="2037.9" y="913.7" width="50" height="25"/>
          <rect id="rect84" class="st6" x="1762.9" y="938.7" width="25" height="125"/>
          <rect id="rect85" class="st7" x="1787.9" y="938.7" width="50" height="25"/>
          <rect id="rect86" class="st6" x="1837.9" y="938.7" width="25" height="100"/>
          <rect id="rect87" class="st6" x="2012.9" y="938.7" width="50" height="50"/>
          <rect id="rect88" class="st1" x="2062.9" y="938.7" width="25" height="25"/>
          <rect id="rect89" class="st6" x="2087.9" y="938.7" width="25" height="125"/>
          <rect id="rect90" class="st6" x="1787.9" y="963.7" width="25" height="75"/>
          <rect id="rect91" class="st1" x="1812.9" y="963.7" width="25" height="50"/>
          <rect id="rect92" class="st1" x="1862.9" y="963.7" width="75" height="25"/>
          <rect id="rect93" class="st6" x="1937.9" y="963.7" width="50" height="25"/>
          <rect id="rect94" class="st1" x="1987.9" y="963.7" width="25" height="25"/>
          <rect id="rect95" class="st6" x="2062.9" y="963.7" width="25" height="50"/>
          <rect id="rect96" class="st2" x="1862.9" y="988.7" width="75" height="25"/>
          <rect id="rect97" class="st1" x="1937.9" y="988.7" width="25" height="25"/>
          <rect id="rect98" class="st6" x="1962.9" y="988.7" width="25" height="25"/>
          <rect id="rect99" class="st2" x="1987.9" y="988.7" width="25" height="25"/>
          <rect id="rect100" class="st1" x="2012.9" y="988.7" width="25" height="100"/>
          <rect id="rect101" class="st6" x="2037.9" y="988.7" width="25" height="25"/>
          <rect id="rect102" class="st6" x="2112.9" y="988.7" width="25" height="100"/>
          <rect id="rect103" class="st6" x="1737.9" y="1013.7" width="25" height="150"/>
          <rect id="rect104" class="st7" x="1812.9" y="1013.7" width="25" height="50"/>
          <rect id="rect105" class="st1" x="1862.9" y="1013.7" width="25" height="75"/>
          <rect id="rect106" class="st7" x="1887.9" y="1013.7" width="25" height="25"/>
          <rect id="rect107" class="st5" x="1912.9" y="1013.7" width="25" height="75"/>
          <rect id="rect108" class="st2" x="1937.9" y="1013.7" width="25" height="25"/>
          <rect id="rect109" class="st1" x="1962.9" y="1013.7" width="25" height="25"/>
          <rect id="rect110" class="st7" x="1987.9" y="1013.7" width="25" height="25"/>
          <rect id="rect111" class="st1" x="2037.9" y="1013.7" width="25" height="50"/>
          <rect id="rect112" class="st7" x="2062.9" y="1013.7" width="25" height="50"/>
          <rect id="rect113" class="st1" x="1787.9" y="1038.7" width="25" height="25"/>
          <rect id="rect114" class="st1" x="1837.9" y="1038.7" width="25" height="25"/>
          <rect id="rect115" class="st0" x="1887.9" y="1038.7" width="25" height="25"/>
          <rect id="rect116" class="st5" x="1937.9" y="1038.7" width="50" height="50"/>
          <rect id="rect117" class="st0" x="1987.9" y="1038.7" width="25" height="25"/>
          <rect id="rect118" class="st1" x="1712.9" y="1063.7" width="25" height="25"/>
          <rect id="rect119" class="st1" x="1762.9" y="1063.7" width="25" height="75"/>
          <rect id="rect120" class="st7" x="1837.9" y="1063.7" width="25" height="25"/>
          <rect id="rect121" class="st2" x="1887.9" y="1063.7" width="25" height="25"/>
          <rect id="rect122" class="st2" x="1987.9" y="1063.7" width="25" height="25"/>
          <rect id="rect123" class="st7" x="2037.9" y="1063.7" width="25" height="25"/>
          <rect id="rect124" class="st6" x="2137.9" y="1063.7" width="25" height="100"/>
          <rect id="rect125" class="st6" x="1712.9" y="1088.7" width="25" height="50"/>
          <rect id="rect126" class="st1" x="2112.9" y="1088.7" width="25" height="50"/>
          <rect id="rect127" class="st6" x="1762.9" y="1138.7" width="50" height="25"/>
          <rect id="rect128" class="st1" x="2087.9" y="1138.7" width="25" height="25"/>
          <rect id="rect129" class="st6" x="2112.9" y="1138.7" width="25" height="50"/>
          <rect id="rect130" class="st6" x="2062.9" y="1163.7" width="50" height="25"/>
        </g>
      </g>
    </g>
  </g>
</svg>